<svg width="100%" height="auto" viewBox="0 0 800 242" fill="none" xmlns="http://www.w3.org/2000/svg">
<path d="M69 44C69 19.6995 88.6995 0 113 0H687C711.301 0 731 19.6995 731 44V198C731 222.301 711.301 242 687 242H113C88.6995 242 69 222.301 69 198V44Z" fill="#42B549"/>
<path fill-rule="evenodd" clip-rule="evenodd" d="M181.615 70.6623C163.543 75.4038 149.329 89.7452 144.687 107.921C141.854 119.014 142.94 131.495 147.655 142.015L149.743 146.676L146.148 159.843C144.17 167.086 142.768 173.006 143.032 173C143.296 172.994 149.461 171.421 156.733 169.505L169.955 166.021L172.957 167.563C174.608 168.411 178.688 169.804 182.022 170.658C208.007 177.314 235.62 161.931 243.837 136.224C246.208 128.805 246.697 117.279 244.969 109.502C238.658 81.0946 209.645 63.3073 181.615 70.6623ZM205.032 79.0697C212.957 81.109 218.142 84.1728 224.585 90.6225C233.343 99.3898 237.342 108.796 237.342 120.63C237.342 143.997 217.897 163.476 194.651 163.395C187.882 163.371 183.359 162.402 177.276 159.671L172.709 157.621L163.9 159.202C159.054 160.072 155.09 160.673 155.09 160.54C155.09 160.406 155.815 156.54 156.699 151.948L158.308 143.6L156.324 139.644C150.381 127.795 150.436 113.794 156.474 101.173C159.339 95.1841 169.17 85.2772 175.073 82.431C184.478 77.895 195.613 76.645 205.032 79.0697ZM172.848 96.6628C170.151 98.5725 167.867 103.678 167.867 107.793C167.867 118.966 180.887 136.011 194.438 142.579C202.704 146.586 207.066 147.484 212.077 146.21C216.729 145.027 219.539 142.465 220.628 138.415C221.674 134.524 221.45 134.254 213.817 130.226L207.754 127.027L204.914 130.426C201.317 134.729 199.759 134.738 193.413 130.494C188.675 127.326 181.443 118.963 181.443 116.653C181.443 116.102 182.521 114.293 183.838 112.632C185.156 110.972 186.217 109.393 186.196 109.123C186.175 108.854 185.007 105.755 183.6 102.236L181.043 95.8383L177.849 95.6103C175.88 95.4704 173.962 95.8735 172.848 96.6628Z" fill="#FDFDFD"/>
<path d="M272.244 134.004V96.6836H286.968C289.798 96.6836 292.21 97.2242 294.202 98.3054C296.195 99.3745 297.713 100.863 298.758 102.77C299.815 104.665 300.343 106.852 300.343 109.33C300.343 111.809 299.809 113.995 298.74 115.891C297.671 117.786 296.122 119.262 294.093 120.319C292.076 121.376 289.634 121.904 286.767 121.904H277.383V115.581H285.492C287.01 115.581 288.262 115.32 289.246 114.797C290.242 114.263 290.983 113.528 291.469 112.592C291.967 111.645 292.216 110.557 292.216 109.33C292.216 108.091 291.967 107.01 291.469 106.087C290.983 105.151 290.242 104.428 289.246 103.918C288.249 103.396 286.986 103.135 285.455 103.135H280.134V134.004H272.244ZM305.469 134.004V96.6836H330.616V103.189H313.359V112.082H329.322V118.588H313.359V127.499H330.689V134.004H305.469ZM357.135 107.417C356.989 105.947 356.364 104.805 355.258 103.991C354.153 103.177 352.652 102.77 350.757 102.77C349.469 102.77 348.382 102.952 347.495 103.317C346.608 103.669 345.928 104.161 345.454 104.793C344.993 105.425 344.762 106.141 344.762 106.943C344.738 107.611 344.877 108.194 345.181 108.693C345.497 109.191 345.928 109.622 346.475 109.986C347.022 110.339 347.653 110.648 348.37 110.916C349.087 111.171 349.852 111.39 350.666 111.572L354.019 112.374C355.647 112.738 357.141 113.224 358.502 113.831C359.863 114.439 361.041 115.186 362.037 116.073C363.033 116.96 363.805 118.004 364.352 119.207C364.91 120.41 365.196 121.789 365.208 123.344C365.196 125.628 364.613 127.608 363.459 129.284C362.317 130.949 360.664 132.243 358.502 133.166C356.352 134.077 353.758 134.533 350.721 134.533C347.708 134.533 345.084 134.071 342.848 133.148C340.625 132.224 338.888 130.858 337.637 129.048C336.398 127.225 335.748 124.972 335.687 122.287H343.322C343.407 123.538 343.766 124.583 344.397 125.421C345.041 126.247 345.898 126.873 346.967 127.298C348.048 127.711 349.269 127.918 350.63 127.918C351.966 127.918 353.126 127.723 354.11 127.335C355.106 126.946 355.878 126.405 356.425 125.713C356.971 125.02 357.245 124.225 357.245 123.326C357.245 122.487 356.996 121.783 356.497 121.212C356.011 120.641 355.295 120.155 354.347 119.754C353.412 119.353 352.264 118.988 350.903 118.66L346.839 117.64C343.693 116.875 341.208 115.678 339.386 114.05C337.564 112.422 336.659 110.229 336.671 107.472C336.659 105.212 337.26 103.238 338.475 101.549C339.702 99.8605 341.385 98.5423 343.523 97.5948C345.661 96.6472 348.091 96.1734 350.812 96.1734C353.582 96.1734 355.999 96.6472 358.065 97.5948C360.142 98.5423 361.758 99.8605 362.912 101.549C364.066 103.238 364.661 105.194 364.698 107.417H357.135ZM376.096 134.004H367.641L380.524 96.6836H390.693L403.558 134.004H395.103L385.754 105.212H385.463L376.096 134.004ZM375.568 119.335H395.54V125.494H375.568V119.335ZM439.266 96.6836V134.004H432.451L416.214 110.515H415.941V134.004H408.05V96.6836H414.975L431.084 120.155H431.412V96.6836H439.266ZM457.662 96.6836H467.393L477.671 121.758H478.108L488.386 96.6836H498.117V134.004H490.463V109.713H490.154L480.495 133.822H475.284L465.625 109.622H465.316V134.004H457.662V96.6836ZM504.618 134.004V96.6836H529.766V103.189H512.509V112.082H528.472V118.588H512.509V127.499H529.839V134.004H504.618ZM536.039 134.004V96.6836H543.929V127.499H559.929V134.004H536.039ZM572.539 134.004H564.084L576.968 96.6836H587.136L600.001 134.004H591.546L582.198 105.212H581.906L572.539 134.004ZM572.011 119.335H591.983V125.494H572.011V119.335ZM604.493 134.004V96.6836H612.384V127.499H628.384V134.004H604.493ZM656.661 96.6836H664.552V120.92C664.552 123.641 663.902 126.023 662.602 128.064C661.314 130.104 659.51 131.696 657.19 132.838C654.869 133.968 652.166 134.533 649.08 134.533C645.982 134.533 643.273 133.968 640.953 132.838C638.633 131.696 636.828 130.104 635.541 128.064C634.253 126.023 633.609 123.641 633.609 120.92V96.6836H641.5V120.246C641.5 121.667 641.809 122.931 642.429 124.036C643.061 125.142 643.948 126.01 645.09 126.642C646.231 127.274 647.562 127.59 649.08 127.59C650.611 127.59 651.941 127.274 653.071 126.642C654.213 126.01 655.094 125.142 655.713 124.036C656.345 122.931 656.661 121.667 656.661 120.246V96.6836ZM678.934 96.6836V134.004H671.044V96.6836H678.934ZM280.644 180.004L269.966 142.684H278.585L284.763 168.615H285.073L291.888 142.684H299.268L306.065 168.67H306.393L312.571 142.684H321.19L310.512 180.004H302.822L295.715 155.604H295.423L288.335 180.004H280.644ZM325.414 180.004V142.684H333.304V158.082H349.322V142.684H357.194V180.004H349.322V164.588H333.304V180.004H325.414ZM370.133 180.004H361.677L374.561 142.684H384.729L397.595 180.004H389.139L379.791 151.212H379.499L370.133 180.004ZM369.604 165.335H389.577V171.494H369.604V165.335ZM396.105 149.189V142.684H426.756V149.189H415.33V180.004H407.531V149.189H396.105ZM452.049 153.417C451.904 151.947 451.278 150.805 450.172 149.991C449.067 149.177 447.567 148.77 445.671 148.77C444.384 148.77 443.296 148.952 442.409 149.317C441.523 149.669 440.842 150.161 440.368 150.793C439.907 151.425 439.676 152.141 439.676 152.943C439.652 153.611 439.791 154.194 440.095 154.693C440.411 155.191 440.842 155.622 441.389 155.986C441.936 156.339 442.567 156.648 443.284 156.916C444.001 157.171 444.766 157.39 445.58 157.572L448.933 158.374C450.561 158.738 452.055 159.224 453.416 159.831C454.777 160.439 455.955 161.186 456.951 162.073C457.948 162.96 458.719 164.004 459.266 165.207C459.825 166.41 460.11 167.789 460.122 169.344C460.11 171.628 459.527 173.608 458.373 175.284C457.231 176.949 455.579 178.243 453.416 179.166C451.266 180.077 448.672 180.533 445.635 180.533C442.622 180.533 439.998 180.071 437.763 179.148C435.539 178.224 433.802 176.858 432.551 175.048C431.312 173.225 430.662 170.972 430.601 168.287H438.236C438.321 169.538 438.68 170.583 439.312 171.421C439.955 172.247 440.812 172.873 441.881 173.298C442.962 173.711 444.183 173.918 445.544 173.918C446.88 173.918 448.04 173.723 449.024 173.335C450.021 172.946 450.792 172.405 451.339 171.713C451.885 171.02 452.159 170.225 452.159 169.326C452.159 168.487 451.91 167.783 451.412 167.212C450.926 166.641 450.209 166.155 449.261 165.754C448.326 165.353 447.178 164.988 445.817 164.66L441.753 163.64C438.607 162.875 436.123 161.678 434.3 160.05C432.478 158.422 431.573 156.229 431.585 153.472C431.573 151.212 432.174 149.238 433.389 147.549C434.616 145.86 436.299 144.542 438.437 143.595C440.575 142.647 443.005 142.173 445.726 142.173C448.496 142.173 450.913 142.647 452.979 143.595C455.056 144.542 456.672 145.86 457.826 147.549C458.98 149.238 459.575 151.194 459.612 153.417H452.049ZM471.01 180.004H462.555L475.439 142.684H485.607L498.472 180.004H490.017L480.669 151.212H480.377L471.01 180.004ZM470.482 165.335H490.454V171.494H470.482V165.335ZM502.964 180.004V142.684H517.688C520.519 142.684 522.931 143.224 524.923 144.305C526.915 145.375 528.434 146.863 529.479 148.77C530.536 150.665 531.064 152.852 531.064 155.33C531.064 157.809 530.53 159.995 529.46 161.891C528.391 163.786 526.842 165.262 524.814 166.319C522.797 167.376 520.355 167.904 517.488 167.904H508.103V161.581H516.212C517.731 161.581 518.982 161.32 519.966 160.797C520.962 160.263 521.704 159.528 522.189 158.592C522.688 157.645 522.937 156.557 522.937 155.33C522.937 154.091 522.688 153.01 522.189 152.087C521.704 151.151 520.962 150.428 519.966 149.918C518.97 149.396 517.707 149.135 516.176 149.135H510.855V180.004H502.964ZM536.189 180.004V142.684H550.913C553.744 142.684 556.156 143.224 558.148 144.305C560.14 145.375 561.659 146.863 562.704 148.77C563.761 150.665 564.289 152.852 564.289 155.33C564.289 157.809 563.754 159.995 562.685 161.891C561.616 163.786 560.067 165.262 558.039 166.319C556.022 167.376 553.58 167.904 550.713 167.904H541.328V161.581H549.437C550.956 161.581 552.207 161.32 553.191 160.797C554.187 160.263 554.928 159.528 555.414 158.592C555.913 157.645 556.162 156.557 556.162 155.33C556.162 154.091 555.913 153.01 555.414 152.087C554.928 151.151 554.187 150.428 553.191 149.918C552.195 149.396 550.932 149.135 549.401 149.135H544.08V180.004H536.189Z" fill="white"/>
<path d="M270.975 82V59.2797H275.778V69.2975H276.078L284.254 59.2797H290.012L281.58 69.4528L290.112 82H284.365L278.141 72.659L275.778 75.5434V82H270.975ZM292.513 82V59.2797H297.317V78.0395H307.058V82H292.513ZM315.042 59.2797V82H310.239V59.2797H315.042ZM318.995 82V59.2797H323.798V69.2975H324.098L332.274 59.2797H338.032L329.6 69.4528L338.132 82H332.385L326.161 72.659L323.798 75.5434V82H318.995ZM355.818 82H347.764V59.2797H355.884C358.17 59.2797 360.137 59.7346 361.786 60.6443C363.436 61.5466 364.704 62.8446 365.592 64.5382C366.487 66.2319 366.934 68.2584 366.934 70.6177C366.934 72.9844 366.487 75.0183 365.592 76.7193C364.704 78.4204 363.428 79.7258 361.764 80.6355C360.108 81.5452 358.125 82 355.818 82ZM352.567 77.8842H355.618C357.038 77.8842 358.233 77.6327 359.202 77.1298C360.178 76.6195 360.91 75.8318 361.398 74.7668C361.894 73.6944 362.141 72.3113 362.141 70.6177C362.141 68.9388 361.894 67.5669 361.398 66.5018C360.91 65.4368 360.182 64.6529 359.213 64.1499C358.244 63.647 357.049 63.3956 355.629 63.3956H352.567V77.8842ZM375.296 59.2797V82H370.492V59.2797H375.296ZM391.574 65.814C391.485 64.9191 391.104 64.2239 390.431 63.7284C389.758 63.2329 388.844 62.9851 387.691 62.9851C386.907 62.9851 386.245 63.096 385.705 63.3179C385.165 63.5324 384.751 63.8319 384.462 64.2165C384.181 64.6011 384.041 65.0375 384.041 65.5256C384.026 65.9324 384.111 66.2874 384.296 66.5906C384.488 66.8938 384.751 67.1564 385.084 67.3783C385.416 67.5927 385.801 67.7813 386.237 67.9441C386.674 68.0994 387.14 68.2325 387.635 68.3434L389.676 68.8316C390.668 69.0534 391.577 69.3493 392.406 69.7191C393.234 70.0889 393.951 70.5437 394.558 71.0836C395.164 71.6235 395.634 72.2596 395.967 72.9918C396.307 73.724 396.481 74.5634 396.488 75.5101C396.481 76.9005 396.126 78.106 395.423 79.1267C394.728 80.1399 393.722 80.9276 392.406 81.4897C391.096 82.0444 389.517 82.3217 387.668 82.3217C385.834 82.3217 384.237 82.0407 382.876 81.4786C381.522 80.9165 380.465 80.0845 379.703 78.9825C378.949 77.8731 378.553 76.5011 378.516 74.8666H383.164C383.216 75.6284 383.434 76.2645 383.819 76.7748C384.211 77.2777 384.732 77.6586 385.383 77.9175C386.041 78.1689 386.785 78.2946 387.613 78.2946C388.427 78.2946 389.133 78.1763 389.732 77.9396C390.338 77.703 390.808 77.3739 391.141 76.9523C391.474 76.5307 391.64 76.0463 391.64 75.499C391.64 74.9887 391.488 74.5597 391.185 74.2121C390.889 73.8645 390.453 73.5687 389.876 73.3246C389.307 73.0805 388.608 72.8586 387.779 72.659L385.305 72.0377C383.39 71.5718 381.877 70.8433 380.768 69.8522C379.659 68.8611 379.108 67.5262 379.115 65.8473C379.108 64.4717 379.474 63.2698 380.213 62.2418C380.96 61.2138 381.985 60.4113 383.286 59.8344C384.588 59.2575 386.067 58.9691 387.724 58.9691C389.41 58.9691 390.882 59.2575 392.139 59.8344C393.404 60.4113 394.388 61.2138 395.09 62.2418C395.793 63.2698 396.155 64.4606 396.177 65.814H391.574ZM404.523 59.2797V82H399.719V59.2797H404.523ZM427.479 59.2797V82H423.33L413.445 67.7H413.279V82H408.475V59.2797H412.691L422.498 73.5687H422.697V59.2797H427.479ZM436.251 59.2797V82H431.448V59.2797H436.251ZM461.468 59.2797H466.271V74.0346C466.271 75.6913 465.876 77.1409 465.084 78.3834C464.3 79.6259 463.202 80.5948 461.789 81.29C460.377 81.9778 458.731 82.3217 456.853 82.3217C454.967 82.3217 453.317 81.9778 451.905 81.29C450.492 80.5948 449.394 79.6259 448.61 78.3834C447.826 77.1409 447.434 75.6913 447.434 74.0346V59.2797H452.238V73.6241C452.238 74.4894 452.426 75.2586 452.803 75.9316C453.188 76.6047 453.728 77.1335 454.423 77.5181C455.118 77.9027 455.928 78.095 456.853 78.095C457.785 78.095 458.594 77.9027 459.282 77.5181C459.977 77.1335 460.514 76.6047 460.891 75.9316C461.275 75.2586 461.468 74.4894 461.468 73.6241V59.2797ZM489.227 59.2797V82H485.078L475.194 67.7H475.027V82H470.224V59.2797H474.439L484.246 73.5687H484.446V59.2797H489.227ZM492.331 63.2402V59.2797H510.991V63.2402H504.035V82H499.287V63.2402H492.331ZM528.098 59.2797H532.901V74.0346C532.901 75.6913 532.506 77.1409 531.714 78.3834C530.93 79.6259 529.832 80.5948 528.419 81.29C527.007 81.9778 525.361 82.3217 523.483 82.3217C521.597 82.3217 519.947 81.9778 518.535 81.29C517.122 80.5948 516.024 79.6259 515.24 78.3834C514.456 77.1409 514.064 75.6913 514.064 74.0346V59.2797H518.867V73.6241C518.867 74.4894 519.056 75.2586 519.433 75.9316C519.818 76.6047 520.358 77.1335 521.053 77.5181C521.748 77.9027 522.558 78.095 523.483 78.095C524.414 78.095 525.224 77.9027 525.912 77.5181C526.607 77.1335 527.143 76.6047 527.521 75.9316C527.905 75.2586 528.098 74.4894 528.098 73.6241V59.2797ZM536.853 82V59.2797H541.657V69.2975H541.957L550.133 59.2797H555.891L547.459 69.4528L555.99 82H550.244L544.02 72.659L541.657 75.5434V82H536.853Z" fill="white"/>
</svg>
