<svg width="100%" height="auto" viewBox="0 0 800 242" fill="none" xmlns="http://www.w3.org/2000/svg">
<rect width="800" height="242" fill="white"/>
<path d="M69 44C69 19.6995 88.6995 0 113 0H687C711.301 0 731 19.6995 731 44V198C731 222.301 711.301 242 687 242H113C88.6995 242 69 222.301 69 198V44Z" fill="#42B549"/>
<path fill-rule="evenodd" clip-rule="evenodd" d="M178.637 61.4686C170.811 64.0395 164.046 70.2396 161.052 77.5865L159.079 82.4272L151.885 82.5074C147.929 82.5508 141.836 82.6432 138.346 82.7119L132 82.8362L132.211 132.118L132.422 181.401L170.424 181.613C211.799 181.845 212.784 181.758 221.375 177.109C226.054 174.576 233.398 167.072 235.796 162.372C239.717 154.687 239.984 151.736 239.984 116.201V82.8362H226.079C213.092 82.8362 212.173 82.7364 212.173 81.3222C212.173 78.9689 208.272 72.1267 204.951 68.656C200.087 63.5716 194.871 61.3312 187.225 61.0433C183.626 60.9083 179.762 61.0997 178.637 61.4686ZM191.537 69.3603C196.585 70.8588 200.232 73.7609 202.394 77.9988C204.735 82.5884 204.49 83.3687 200.517 83.9781C198.605 84.2709 194.392 85.286 191.154 86.2332C185.471 87.8969 185.146 87.9076 181.748 86.5408C179.811 85.7621 175.835 84.6725 172.911 84.1204C166.806 82.9671 166.54 82.2203 170.297 76.7784C172.959 72.9209 175.618 70.8629 179.911 69.3333C184.11 67.8373 186.428 67.843 191.537 69.3603ZM163.914 87.7391C171.59 88.6225 179.434 90.4784 182.999 92.2567C185.087 93.2979 185.899 93.217 191.179 91.4461C199.638 88.6078 205.919 87.7195 221.411 87.1706L235.146 86.6839L234.907 120.137L234.704 148.425C234.68 151.828 233.919 155.185 232.475 158.267C229.575 164.454 223.961 170.322 217.684 173.726C214.335 175.543 210.589 176.505 206.779 176.529L174.752 176.728L136.921 176.964V131.945V86.926L146.941 86.9326C152.452 86.9367 160.09 87.299 163.914 87.7391ZM155.24 100.355C147.995 102.623 141.497 108.903 138.92 116.126C137.403 120.377 137.466 128.368 139.052 133.024C139.799 135.217 142.085 138.761 144.353 141.242C150.821 148.32 159.565 151.096 168.248 148.829L172.91 147.611L179.306 154.447L185.702 161.284L192.501 154.45C199.019 147.898 199.399 147.65 201.703 148.452C203.024 148.914 207.152 149.13 210.874 148.935C218.605 148.529 223.083 146.47 227.72 141.189C232.077 136.227 233.77 131.564 233.76 124.552C233.749 116.807 231.451 111.219 226.334 106.503C214.641 95.7248 197.311 97.4229 188.282 110.231L185.743 113.835L183.535 110.353C177.903 101.473 165.581 97.1195 155.24 100.355ZM172.649 114.055C174.117 114.936 176.035 117.24 177.055 119.347C178.693 122.731 178.772 123.478 177.9 127.373C176.467 133.775 171.828 137.64 165.577 137.64C158.899 137.64 154.724 134.438 152.512 127.62C151.749 125.267 151.738 123.883 152.465 121.682L153.412 118.812L155.501 120.455C158.401 122.736 161.894 122.556 164.455 119.995C166.252 118.198 166.483 117.423 166.041 114.66C165.53 111.463 165.55 111.433 167.787 111.961C169.031 112.253 171.219 113.196 172.649 114.055ZM214.481 114.504C220.102 118.701 221.18 128.009 216.603 132.823C213.309 136.289 210.411 137.64 206.271 137.64C201.38 137.64 197.456 135.312 195.221 131.085C193.431 127.699 192.821 122.818 193.854 120.128C194.287 119 194.603 119.042 196.418 120.47C199.31 122.745 203.257 122.579 205.599 120.086C207.124 118.463 207.407 117.456 207.061 114.876L206.632 111.678L209.544 112.335C211.145 112.697 213.367 113.673 214.481 114.504ZM187.138 136.48C187.979 138.67 187.709 139.063 185.636 138.667C183.904 138.336 183.767 138.079 184.606 136.735C185.786 134.846 186.484 134.776 187.138 136.48ZM192.184 143.883C195.314 145.934 195.033 147.062 190.193 151.85L185.527 156.467L182.669 153.393C176.524 146.783 176.558 146.847 178.239 144.989C181.199 141.718 188.051 141.175 192.184 143.883Z" fill="white"/>
<path d="M273.244 124V86.6794H287.968C290.798 86.6794 293.21 87.22 295.202 88.3013C297.195 89.3703 298.713 90.8586 299.758 92.7659C300.815 94.6611 301.343 96.8478 301.343 99.3261C301.343 101.804 300.809 103.991 299.74 105.886C298.671 107.782 297.122 109.258 295.093 110.315C293.076 111.372 290.634 111.9 287.767 111.9H278.383V105.577H286.492C288.01 105.577 289.262 105.315 290.246 104.793C291.242 104.258 291.983 103.523 292.469 102.588C292.967 101.64 293.216 100.553 293.216 99.3261C293.216 98.087 292.967 97.0058 292.469 96.0825C291.983 95.147 291.242 94.4242 290.246 93.9139C289.249 93.3915 287.986 93.1303 286.455 93.1303H281.134V124H273.244ZM306.469 124V86.6794H331.616V93.185H314.359V102.078H330.322V108.583H314.359V117.494H331.689V124H306.469ZM358.135 97.4127C357.989 95.9428 357.364 94.8008 356.258 93.9868C355.153 93.1729 353.652 92.7659 351.757 92.7659C350.469 92.7659 349.382 92.9481 348.495 93.3126C347.608 93.6649 346.928 94.1569 346.454 94.7886C345.993 95.4204 345.762 96.1371 345.762 96.9389C345.738 97.6071 345.877 98.1902 346.181 98.6883C346.497 99.1864 346.928 99.6177 347.475 99.9822C348.022 100.334 348.653 100.644 349.37 100.912C350.087 101.167 350.852 101.385 351.666 101.568L355.019 102.369C356.647 102.734 358.141 103.22 359.502 103.827C360.863 104.435 362.041 105.182 363.037 106.069C364.033 106.955 364.805 108 365.352 109.203C365.91 110.406 366.196 111.785 366.208 113.34C366.196 115.624 365.613 117.604 364.459 119.28C363.317 120.945 361.664 122.238 359.502 123.162C357.352 124.073 354.758 124.528 351.721 124.528C348.708 124.528 346.084 124.067 343.848 123.144C341.625 122.22 339.888 120.854 338.637 119.043C337.398 117.221 336.748 114.967 336.687 112.283H344.322C344.407 113.534 344.766 114.579 345.397 115.417C346.041 116.243 346.898 116.869 347.967 117.294C349.048 117.707 350.269 117.914 351.63 117.914C352.966 117.914 354.126 117.719 355.11 117.33C356.106 116.942 356.878 116.401 357.425 115.709C357.971 115.016 358.245 114.22 358.245 113.321C358.245 112.483 357.996 111.778 357.497 111.207C357.011 110.637 356.295 110.151 355.347 109.75C354.412 109.349 353.264 108.984 351.903 108.656L347.839 107.636C344.693 106.87 342.208 105.674 340.386 104.046C338.564 102.418 337.659 100.225 337.671 97.4674C337.659 95.2078 338.26 93.2336 339.475 91.545C340.702 89.8563 342.385 88.5382 344.523 87.5906C346.661 86.643 349.091 86.1692 351.812 86.1692C354.582 86.1692 356.999 86.643 359.065 87.5906C361.142 88.5382 362.758 89.8563 363.912 91.545C365.066 93.2336 365.661 95.1895 365.698 97.4127H358.135ZM377.096 124H368.641L381.524 86.6794H391.693L404.558 124H396.103L386.754 95.2078H386.463L377.096 124ZM376.568 109.331H396.54V115.49H376.568V109.331ZM440.266 86.6794V124H433.451L417.214 100.511H416.941V124H409.05V86.6794H415.975L432.084 110.151H432.412V86.6794H440.266ZM458.662 86.6794H468.393L478.671 111.754H479.108L489.386 86.6794H499.117V124H491.463V99.7088H491.154L481.495 123.818H476.284L466.625 99.6177H466.316V124H458.662V86.6794ZM505.618 124V86.6794H530.766V93.185H513.509V102.078H529.472V108.583H513.509V117.494H530.839V124H505.618ZM537.039 124V86.6794H544.929V117.494H560.929V124H537.039ZM573.539 124H565.084L577.968 86.6794H588.136L601.001 124H592.546L583.198 95.2078H582.906L573.539 124ZM573.011 109.331H592.983V115.49H573.011V109.331ZM605.493 124V86.6794H613.384V117.494H629.384V124H605.493ZM657.661 86.6794H665.552V110.916C665.552 113.637 664.902 116.018 663.602 118.059C662.314 120.1 660.51 121.692 658.19 122.834C655.869 123.964 653.166 124.528 650.08 124.528C646.982 124.528 644.273 123.964 641.953 122.834C639.633 121.692 637.828 120.1 636.541 118.059C635.253 116.018 634.609 113.637 634.609 110.916V86.6794H642.5V110.242C642.5 111.663 642.809 112.927 643.429 114.032C644.061 115.138 644.948 116.006 646.09 116.638C647.231 117.27 648.562 117.586 650.08 117.586C651.611 117.586 652.941 117.27 654.071 116.638C655.213 116.006 656.094 115.138 656.713 114.032C657.345 112.927 657.661 111.663 657.661 110.242V86.6794ZM679.934 86.6794V124H672.044V86.6794H679.934ZM271.822 139.185V132.679H302.473V139.185H291.047V170H283.248V139.185H271.822ZM340.113 151.34C340.113 155.41 339.341 158.872 337.798 161.727C336.268 164.582 334.178 166.762 331.53 168.269C328.893 169.763 325.929 170.51 322.637 170.51C319.32 170.51 316.344 169.757 313.708 168.251C311.071 166.744 308.988 164.563 307.457 161.709C305.927 158.854 305.161 155.397 305.161 151.34C305.161 147.27 305.927 143.808 307.457 140.953C308.988 138.098 311.071 135.923 313.708 134.429C316.344 132.922 319.32 132.169 322.637 132.169C325.929 132.169 328.893 132.922 331.53 134.429C334.178 135.923 336.268 138.098 337.798 140.953C339.341 143.808 340.113 147.27 340.113 151.34ZM332.113 151.34C332.113 148.703 331.718 146.48 330.928 144.67C330.151 142.86 329.051 141.487 327.63 140.552C326.209 139.616 324.544 139.149 322.637 139.149C320.73 139.149 319.065 139.616 317.644 140.552C316.222 141.487 315.117 142.86 314.327 144.67C313.55 146.48 313.161 148.703 313.161 151.34C313.161 153.976 313.55 156.199 314.327 158.009C315.117 159.819 316.222 161.192 317.644 162.128C319.065 163.063 320.73 163.531 322.637 163.531C324.544 163.531 326.209 163.063 327.63 162.128C329.051 161.192 330.151 159.819 330.928 158.009C331.718 156.199 332.113 153.976 332.113 151.34ZM345.958 170V132.679H353.848V149.135H354.34L367.771 132.679H377.228L363.379 149.39L377.392 170H367.953L357.73 154.656L353.848 159.394V170H345.958ZM413.528 151.34C413.528 155.41 412.757 158.872 411.214 161.727C409.683 164.582 407.594 166.762 404.945 168.269C402.309 169.763 399.345 170.51 396.053 170.51C392.736 170.51 389.76 169.757 387.123 168.251C384.487 166.744 382.404 164.563 380.873 161.709C379.342 158.854 378.577 155.397 378.577 151.34C378.577 147.27 379.342 143.808 380.873 140.953C382.404 138.098 384.487 135.923 387.123 134.429C389.76 132.922 392.736 132.169 396.053 132.169C399.345 132.169 402.309 132.922 404.945 134.429C407.594 135.923 409.683 138.098 411.214 140.953C412.757 143.808 413.528 147.27 413.528 151.34ZM405.529 151.34C405.529 148.703 405.134 146.48 404.344 144.67C403.567 142.86 402.467 141.487 401.046 140.552C399.624 139.616 397.96 139.149 396.053 139.149C394.145 139.149 392.481 139.616 391.06 140.552C389.638 141.487 388.533 142.86 387.743 144.67C386.965 146.48 386.577 148.703 386.577 151.34C386.577 153.976 386.965 156.199 387.743 158.009C388.533 159.819 389.638 161.192 391.06 162.128C392.481 163.063 394.145 163.531 396.053 163.531C397.96 163.531 399.624 163.063 401.046 162.128C402.467 161.192 403.567 159.819 404.344 158.009C405.134 156.199 405.529 153.976 405.529 151.34ZM419.373 170V132.679H434.098C436.928 132.679 439.34 133.22 441.332 134.301C443.324 135.37 444.843 136.859 445.888 138.766C446.945 140.661 447.473 142.848 447.473 145.326C447.473 147.804 446.939 149.991 445.87 151.886C444.8 153.782 443.252 155.258 441.223 156.315C439.206 157.372 436.764 157.9 433.897 157.9H424.512V151.577H432.621C434.14 151.577 435.391 151.315 436.375 150.793C437.372 150.258 438.113 149.523 438.599 148.588C439.097 147.64 439.346 146.553 439.346 145.326C439.346 144.087 439.097 143.006 438.599 142.082C438.113 141.147 437.372 140.424 436.375 139.914C435.379 139.392 434.116 139.13 432.585 139.13H427.264V170H419.373ZM452.598 170V132.679H477.746V139.185H460.489V148.078H476.452V154.583H460.489V163.494H477.819V170H452.598ZM497.249 170H484.019V132.679H497.358C501.112 132.679 504.344 133.427 507.053 134.921C509.762 136.403 511.846 138.535 513.304 141.317C514.774 144.099 515.509 147.428 515.509 151.303C515.509 155.191 514.774 158.532 513.304 161.326C511.846 164.12 509.75 166.264 507.017 167.759C504.295 169.253 501.039 170 497.249 170ZM491.91 163.239H496.921C499.254 163.239 501.216 162.826 502.807 162C504.411 161.162 505.613 159.868 506.415 158.119C507.229 156.357 507.636 154.085 507.636 151.303C507.636 148.546 507.229 146.292 506.415 144.543C505.613 142.793 504.417 141.505 502.825 140.679C501.234 139.853 499.272 139.44 496.939 139.44H491.91V163.239ZM529.244 132.679V170H521.354V132.679H529.244ZM542.169 170H533.713L546.597 132.679H556.765L569.631 170H561.175L551.827 141.208H551.535L542.169 170ZM541.64 155.331H561.613V161.49H541.64V155.331Z" fill="white"/>
</svg>
