<svg width="100%" height="auto" viewBox="0 0 800 242" fill="none" xmlns="http://www.w3.org/2000/svg">
<path d="M69 44C69 19.6995 88.6995 0 113 0H687C711.301 0 731 19.6995 731 44V198C731 222.301 711.301 242 687 242H113C88.6995 242 69 222.301 69 198V44Z" fill="#42B549"/>
<path fill-rule="evenodd" clip-rule="evenodd" d="M179.637 61.4686C171.811 64.0395 165.046 70.2396 162.052 77.5865L160.079 82.4272L152.885 82.5074C148.929 82.5508 142.836 82.6432 139.346 82.7119L133 82.8362L133.211 132.118L133.422 181.401L171.424 181.613C212.799 181.845 213.784 181.758 222.375 177.109C227.054 174.576 234.398 167.072 236.796 162.372C240.717 154.687 240.984 151.736 240.984 116.201V82.8362H227.079C214.092 82.8362 213.173 82.7364 213.173 81.3222C213.173 78.9689 209.272 72.1267 205.951 68.656C201.087 63.5716 195.871 61.3312 188.225 61.0433C184.626 60.9083 180.762 61.0997 179.637 61.4686ZM192.537 69.3603C197.585 70.8588 201.232 73.7609 203.394 77.9988C205.735 82.5884 205.49 83.3687 201.517 83.9781C199.605 84.2709 195.392 85.286 192.154 86.2332C186.471 87.8969 186.146 87.9076 182.748 86.5408C180.811 85.7621 176.835 84.6725 173.911 84.1204C167.806 82.9671 167.54 82.2203 171.297 76.7784C173.959 72.9209 176.618 70.8629 180.911 69.3333C185.11 67.8373 187.428 67.843 192.537 69.3603ZM164.914 87.7391C172.59 88.6225 180.434 90.4784 183.999 92.2567C186.087 93.2979 186.899 93.217 192.179 91.4461C200.638 88.6078 206.919 87.7195 222.411 87.1706L236.146 86.6839L235.907 120.137L235.704 148.425C235.68 151.828 234.919 155.185 233.475 158.267C230.575 164.454 224.961 170.322 218.684 173.726C215.335 175.543 211.589 176.505 207.779 176.529L175.752 176.728L137.921 176.964V131.945V86.926L147.941 86.9326C153.452 86.9367 161.09 87.299 164.914 87.7391ZM156.24 100.355C148.995 102.623 142.497 108.903 139.92 116.126C138.403 120.377 138.466 128.368 140.052 133.024C140.799 135.217 143.085 138.761 145.353 141.242C151.821 148.32 160.565 151.096 169.248 148.829L173.91 147.611L180.306 154.447L186.702 161.284L193.501 154.45C200.019 147.898 200.399 147.65 202.703 148.452C204.024 148.914 208.152 149.13 211.874 148.935C219.605 148.529 224.083 146.47 228.72 141.189C233.077 136.227 234.77 131.564 234.76 124.552C234.749 116.807 232.451 111.219 227.334 106.503C215.641 95.7248 198.311 97.4229 189.282 110.231L186.743 113.835L184.535 110.353C178.903 101.473 166.581 97.1195 156.24 100.355ZM173.649 114.055C175.117 114.936 177.035 117.24 178.055 119.347C179.693 122.731 179.772 123.478 178.9 127.373C177.467 133.775 172.828 137.64 166.577 137.64C159.899 137.64 155.724 134.438 153.512 127.62C152.749 125.267 152.738 123.883 153.465 121.682L154.412 118.812L156.501 120.455C159.401 122.736 162.894 122.556 165.455 119.995C167.252 118.198 167.483 117.423 167.041 114.66C166.53 111.463 166.55 111.433 168.787 111.961C170.031 112.253 172.219 113.196 173.649 114.055ZM215.481 114.504C221.102 118.701 222.18 128.009 217.603 132.823C214.309 136.289 211.411 137.64 207.271 137.64C202.38 137.64 198.456 135.312 196.221 131.085C194.431 127.699 193.821 122.818 194.854 120.128C195.287 119 195.603 119.042 197.418 120.47C200.31 122.745 204.257 122.579 206.599 120.086C208.124 118.463 208.407 117.456 208.061 114.876L207.632 111.678L210.544 112.335C212.145 112.697 214.367 113.673 215.481 114.504ZM188.138 136.48C188.979 138.67 188.709 139.063 186.636 138.667C184.904 138.336 184.767 138.079 185.606 136.735C186.786 134.846 187.484 134.776 188.138 136.48ZM193.184 143.883C196.314 145.934 196.033 147.062 191.193 151.85L186.527 156.467L183.669 153.393C177.524 146.783 177.558 146.847 179.239 144.989C182.199 141.718 189.051 141.175 193.184 143.883Z" fill="white"/>
<path d="M272.244 134.004V96.6836H286.968C289.798 96.6836 292.21 97.2242 294.202 98.3054C296.195 99.3745 297.713 100.863 298.758 102.77C299.815 104.665 300.343 106.852 300.343 109.33C300.343 111.809 299.809 113.995 298.74 115.891C297.671 117.786 296.122 119.262 294.093 120.319C292.076 121.376 289.634 121.904 286.767 121.904H277.383V115.581H285.492C287.01 115.581 288.262 115.32 289.246 114.797C290.242 114.263 290.983 113.528 291.469 112.592C291.967 111.645 292.216 110.557 292.216 109.33C292.216 108.091 291.967 107.01 291.469 106.087C290.983 105.151 290.242 104.428 289.246 103.918C288.249 103.396 286.986 103.135 285.455 103.135H280.134V134.004H272.244ZM305.469 134.004V96.6836H330.616V103.189H313.359V112.082H329.322V118.588H313.359V127.499H330.689V134.004H305.469ZM357.135 107.417C356.989 105.947 356.364 104.805 355.258 103.991C354.153 103.177 352.652 102.77 350.757 102.77C349.469 102.77 348.382 102.952 347.495 103.317C346.608 103.669 345.928 104.161 345.454 104.793C344.993 105.425 344.762 106.141 344.762 106.943C344.738 107.611 344.877 108.194 345.181 108.693C345.497 109.191 345.928 109.622 346.475 109.986C347.022 110.339 347.653 110.648 348.37 110.916C349.087 111.171 349.852 111.39 350.666 111.572L354.019 112.374C355.647 112.738 357.141 113.224 358.502 113.831C359.863 114.439 361.041 115.186 362.037 116.073C363.033 116.96 363.805 118.004 364.352 119.207C364.91 120.41 365.196 121.789 365.208 123.344C365.196 125.628 364.613 127.608 363.459 129.284C362.317 130.949 360.664 132.243 358.502 133.166C356.352 134.077 353.758 134.533 350.721 134.533C347.708 134.533 345.084 134.071 342.848 133.148C340.625 132.224 338.888 130.858 337.637 129.048C336.398 127.225 335.748 124.972 335.687 122.287H343.322C343.407 123.538 343.766 124.583 344.397 125.421C345.041 126.247 345.898 126.873 346.967 127.298C348.048 127.711 349.269 127.918 350.63 127.918C351.966 127.918 353.126 127.723 354.11 127.335C355.106 126.946 355.878 126.405 356.425 125.713C356.971 125.02 357.245 124.225 357.245 123.326C357.245 122.487 356.996 121.783 356.497 121.212C356.011 120.641 355.295 120.155 354.347 119.754C353.412 119.353 352.264 118.988 350.903 118.66L346.839 117.64C343.693 116.875 341.208 115.678 339.386 114.05C337.564 112.422 336.659 110.229 336.671 107.472C336.659 105.212 337.26 103.238 338.475 101.549C339.702 99.8605 341.385 98.5423 343.523 97.5948C345.661 96.6472 348.091 96.1734 350.812 96.1734C353.582 96.1734 355.999 96.6472 358.065 97.5948C360.142 98.5423 361.758 99.8605 362.912 101.549C364.066 103.238 364.661 105.194 364.698 107.417H357.135ZM376.096 134.004H367.641L380.524 96.6836H390.693L403.558 134.004H395.103L385.754 105.212H385.463L376.096 134.004ZM375.568 119.335H395.54V125.494H375.568V119.335ZM439.266 96.6836V134.004H432.451L416.214 110.515H415.941V134.004H408.05V96.6836H414.975L431.084 120.155H431.412V96.6836H439.266ZM457.662 96.6836H467.393L477.671 121.758H478.108L488.386 96.6836H498.117V134.004H490.463V109.713H490.154L480.495 133.822H475.284L465.625 109.622H465.316V134.004H457.662V96.6836ZM504.618 134.004V96.6836H529.766V103.189H512.509V112.082H528.472V118.588H512.509V127.499H529.839V134.004H504.618ZM536.039 134.004V96.6836H543.929V127.499H559.929V134.004H536.039ZM572.539 134.004H564.084L576.968 96.6836H587.136L600.001 134.004H591.546L582.198 105.212H581.906L572.539 134.004ZM572.011 119.335H591.983V125.494H572.011V119.335ZM604.493 134.004V96.6836H612.384V127.499H628.384V134.004H604.493ZM656.661 96.6836H664.552V120.92C664.552 123.641 663.902 126.023 662.602 128.064C661.314 130.104 659.51 131.696 657.19 132.838C654.869 133.968 652.166 134.533 649.08 134.533C645.982 134.533 643.273 133.968 640.953 132.838C638.633 131.696 636.828 130.104 635.541 128.064C634.253 126.023 633.609 123.641 633.609 120.92V96.6836H641.5V120.246C641.5 121.667 641.809 122.931 642.429 124.036C643.061 125.142 643.948 126.01 645.09 126.642C646.231 127.274 647.562 127.59 649.08 127.59C650.611 127.59 651.941 127.274 653.071 126.642C654.213 126.01 655.094 125.142 655.713 124.036C656.345 122.931 656.661 121.667 656.661 120.246V96.6836ZM678.934 96.6836V134.004H671.044V96.6836H678.934ZM270.822 149.189V142.684H301.473V149.189H290.047V180.004H282.248V149.189H270.822ZM339.113 161.344C339.113 165.414 338.341 168.876 336.798 171.731C335.268 174.586 333.178 176.767 330.53 178.273C327.893 179.767 324.929 180.514 321.637 180.514C318.32 180.514 315.344 179.761 312.708 178.255C310.071 176.748 307.988 174.568 306.457 171.713C304.927 168.858 304.161 165.402 304.161 161.344C304.161 157.274 304.927 153.812 306.457 150.957C307.988 148.102 310.071 145.927 312.708 144.433C315.344 142.927 318.32 142.173 321.637 142.173C324.929 142.173 327.893 142.927 330.53 144.433C333.178 145.927 335.268 148.102 336.798 150.957C338.341 153.812 339.113 157.274 339.113 161.344ZM331.113 161.344C331.113 158.708 330.718 156.484 329.928 154.674C329.151 152.864 328.051 151.491 326.63 150.556C325.209 149.62 323.544 149.153 321.637 149.153C319.73 149.153 318.065 149.62 316.644 150.556C315.222 151.491 314.117 152.864 313.327 154.674C312.55 156.484 312.161 158.708 312.161 161.344C312.161 163.98 312.55 166.203 313.327 168.013C314.117 169.824 315.222 171.196 316.644 172.132C318.065 173.067 319.73 173.535 321.637 173.535C323.544 173.535 325.209 173.067 326.63 172.132C328.051 171.196 329.151 169.824 329.928 168.013C330.718 166.203 331.113 163.98 331.113 161.344ZM344.958 180.004V142.684H352.848V159.139H353.34L366.771 142.684H376.228L362.379 159.394L376.392 180.004H366.953L356.73 164.66L352.848 169.398V180.004H344.958ZM412.528 161.344C412.528 165.414 411.757 168.876 410.214 171.731C408.683 174.586 406.594 176.767 403.945 178.273C401.309 179.767 398.345 180.514 395.053 180.514C391.736 180.514 388.76 179.761 386.123 178.255C383.487 176.748 381.404 174.568 379.873 171.713C378.342 168.858 377.577 165.402 377.577 161.344C377.577 157.274 378.342 153.812 379.873 150.957C381.404 148.102 383.487 145.927 386.123 144.433C388.76 142.927 391.736 142.173 395.053 142.173C398.345 142.173 401.309 142.927 403.945 144.433C406.594 145.927 408.683 148.102 410.214 150.957C411.757 153.812 412.528 157.274 412.528 161.344ZM404.529 161.344C404.529 158.708 404.134 156.484 403.344 154.674C402.567 152.864 401.467 151.491 400.046 150.556C398.624 149.62 396.96 149.153 395.053 149.153C393.145 149.153 391.481 149.62 390.06 150.556C388.638 151.491 387.533 152.864 386.743 154.674C385.965 156.484 385.577 158.708 385.577 161.344C385.577 163.98 385.965 166.203 386.743 168.013C387.533 169.824 388.638 171.196 390.06 172.132C391.481 173.067 393.145 173.535 395.053 173.535C396.96 173.535 398.624 173.067 400.046 172.132C401.467 171.196 402.567 169.824 403.344 168.013C404.134 166.203 404.529 163.98 404.529 161.344ZM418.373 180.004V142.684H433.098C435.928 142.684 438.34 143.224 440.332 144.305C442.324 145.375 443.843 146.863 444.888 148.77C445.945 150.665 446.473 152.852 446.473 155.33C446.473 157.809 445.939 159.995 444.87 161.891C443.8 163.786 442.252 165.262 440.223 166.319C438.206 167.376 435.764 167.904 432.897 167.904H423.512V161.581H431.621C433.14 161.581 434.391 161.32 435.375 160.797C436.372 160.263 437.113 159.528 437.599 158.592C438.097 157.645 438.346 156.557 438.346 155.33C438.346 154.091 438.097 153.01 437.599 152.087C437.113 151.151 436.372 150.428 435.375 149.918C434.379 149.396 433.116 149.135 431.585 149.135H426.264V180.004H418.373ZM451.598 180.004V142.684H476.746V149.189H459.489V158.082H475.452V164.588H459.489V173.499H476.819V180.004H451.598ZM496.249 180.004H483.019V142.684H496.358C500.112 142.684 503.344 143.431 506.053 144.925C508.762 146.407 510.846 148.539 512.304 151.321C513.774 154.103 514.509 157.432 514.509 161.307C514.509 165.195 513.774 168.536 512.304 171.33C510.846 174.124 508.75 176.268 506.017 177.763C503.295 179.257 500.039 180.004 496.249 180.004ZM490.91 173.243H495.921C498.254 173.243 500.216 172.83 501.807 172.004C503.411 171.166 504.613 169.872 505.415 168.123C506.229 166.361 506.636 164.089 506.636 161.307C506.636 158.55 506.229 156.296 505.415 154.547C504.613 152.797 503.417 151.51 501.825 150.683C500.234 149.857 498.272 149.444 495.939 149.444H490.91V173.243ZM528.244 142.684V180.004H520.354V142.684H528.244ZM541.169 180.004H532.713L545.597 142.684H555.765L568.631 180.004H560.175L550.827 151.212H550.535L541.169 180.004ZM540.64 165.335H560.613V171.494H540.64V165.335Z" fill="white"/>
<path d="M270.975 82V59.2797H275.778V69.2975H276.078L284.254 59.2797H290.012L281.58 69.4528L290.112 82H284.365L278.141 72.659L275.778 75.5434V82H270.975ZM292.513 82V59.2797H297.317V78.0395H307.058V82H292.513ZM315.042 59.2797V82H310.239V59.2797H315.042ZM318.995 82V59.2797H323.798V69.2975H324.098L332.274 59.2797H338.032L329.6 69.4528L338.132 82H332.385L326.161 72.659L323.798 75.5434V82H318.995ZM355.818 82H347.764V59.2797H355.884C358.17 59.2797 360.137 59.7346 361.786 60.6443C363.436 61.5466 364.704 62.8446 365.592 64.5382C366.487 66.2319 366.934 68.2584 366.934 70.6177C366.934 72.9844 366.487 75.0183 365.592 76.7193C364.704 78.4204 363.428 79.7258 361.764 80.6355C360.108 81.5452 358.125 82 355.818 82ZM352.567 77.8842H355.618C357.038 77.8842 358.233 77.6327 359.202 77.1298C360.178 76.6195 360.91 75.8318 361.398 74.7668C361.894 73.6944 362.141 72.3113 362.141 70.6177C362.141 68.9388 361.894 67.5669 361.398 66.5018C360.91 65.4368 360.182 64.6529 359.213 64.1499C358.244 63.647 357.049 63.3956 355.629 63.3956H352.567V77.8842ZM375.296 59.2797V82H370.492V59.2797H375.296ZM391.574 65.814C391.485 64.9191 391.104 64.2239 390.431 63.7284C389.758 63.2329 388.844 62.9851 387.691 62.9851C386.907 62.9851 386.245 63.096 385.705 63.3179C385.165 63.5324 384.751 63.8319 384.462 64.2165C384.181 64.6011 384.041 65.0375 384.041 65.5256C384.026 65.9324 384.111 66.2874 384.296 66.5906C384.488 66.8938 384.751 67.1564 385.084 67.3783C385.416 67.5927 385.801 67.7813 386.237 67.9441C386.674 68.0994 387.14 68.2325 387.635 68.3434L389.676 68.8316C390.668 69.0534 391.577 69.3493 392.406 69.7191C393.234 70.0889 393.951 70.5437 394.558 71.0836C395.164 71.6235 395.634 72.2596 395.967 72.9918C396.307 73.724 396.481 74.5634 396.488 75.5101C396.481 76.9005 396.126 78.106 395.423 79.1267C394.728 80.1399 393.722 80.9276 392.406 81.4897C391.096 82.0444 389.517 82.3217 387.668 82.3217C385.834 82.3217 384.237 82.0407 382.876 81.4786C381.522 80.9165 380.465 80.0845 379.703 78.9825C378.949 77.8731 378.553 76.5011 378.516 74.8666H383.164C383.216 75.6284 383.434 76.2645 383.819 76.7748C384.211 77.2777 384.732 77.6586 385.383 77.9175C386.041 78.1689 386.785 78.2946 387.613 78.2946C388.427 78.2946 389.133 78.1763 389.732 77.9396C390.338 77.703 390.808 77.3739 391.141 76.9523C391.474 76.5307 391.64 76.0463 391.64 75.499C391.64 74.9887 391.488 74.5597 391.185 74.2121C390.889 73.8645 390.453 73.5687 389.876 73.3246C389.307 73.0805 388.608 72.8586 387.779 72.659L385.305 72.0377C383.39 71.5718 381.877 70.8433 380.768 69.8522C379.659 68.8611 379.108 67.5262 379.115 65.8473C379.108 64.4717 379.474 63.2698 380.213 62.2418C380.96 61.2138 381.985 60.4113 383.286 59.8344C384.588 59.2575 386.067 58.9691 387.724 58.9691C389.41 58.9691 390.882 59.2575 392.139 59.8344C393.404 60.4113 394.388 61.2138 395.09 62.2418C395.793 63.2698 396.155 64.4606 396.177 65.814H391.574ZM404.523 59.2797V82H399.719V59.2797H404.523ZM427.479 59.2797V82H423.33L413.445 67.7H413.279V82H408.475V59.2797H412.691L422.498 73.5687H422.697V59.2797H427.479ZM436.251 59.2797V82H431.448V59.2797H436.251ZM461.468 59.2797H466.271V74.0346C466.271 75.6913 465.876 77.1409 465.084 78.3834C464.3 79.6259 463.202 80.5948 461.789 81.29C460.377 81.9778 458.731 82.3217 456.853 82.3217C454.967 82.3217 453.317 81.9778 451.905 81.29C450.492 80.5948 449.394 79.6259 448.61 78.3834C447.826 77.1409 447.434 75.6913 447.434 74.0346V59.2797H452.238V73.6241C452.238 74.4894 452.426 75.2586 452.803 75.9316C453.188 76.6047 453.728 77.1335 454.423 77.5181C455.118 77.9027 455.928 78.095 456.853 78.095C457.785 78.095 458.594 77.9027 459.282 77.5181C459.977 77.1335 460.514 76.6047 460.891 75.9316C461.275 75.2586 461.468 74.4894 461.468 73.6241V59.2797ZM489.227 59.2797V82H485.078L475.194 67.7H475.027V82H470.224V59.2797H474.439L484.246 73.5687H484.446V59.2797H489.227ZM492.331 63.2402V59.2797H510.991V63.2402H504.035V82H499.287V63.2402H492.331ZM528.098 59.2797H532.901V74.0346C532.901 75.6913 532.506 77.1409 531.714 78.3834C530.93 79.6259 529.832 80.5948 528.419 81.29C527.007 81.9778 525.361 82.3217 523.483 82.3217C521.597 82.3217 519.947 81.9778 518.535 81.29C517.122 80.5948 516.024 79.6259 515.24 78.3834C514.456 77.1409 514.064 75.6913 514.064 74.0346V59.2797H518.867V73.6241C518.867 74.4894 519.056 75.2586 519.433 75.9316C519.818 76.6047 520.358 77.1335 521.053 77.5181C521.748 77.9027 522.558 78.095 523.483 78.095C524.414 78.095 525.224 77.9027 525.912 77.5181C526.607 77.1335 527.143 76.6047 527.521 75.9316C527.905 75.2586 528.098 74.4894 528.098 73.6241V59.2797ZM536.853 82V59.2797H541.657V69.2975H541.957L550.133 59.2797H555.891L547.459 69.4528L555.99 82H550.244L544.02 72.659L541.657 75.5434V82H536.853Z" fill="white"/>
</svg>
